<?xml version="1.0" encoding="iso-8859-1"?>
<!-- Generator: Adobe Illustrator 19.0.0, SVG Export Plug-In . SVG Version: 6.00 Build 0)  -->
<svg version="1.1" id="Capa_1" xmlns="http://www.w3.org/2000/svg" xmlns:xlink="http://www.w3.org/1999/xlink" x="0px" y="0px"
	 viewBox="0 0 512 512" style="enable-background:new 0 0 512 512;" xml:space="preserve">
<path style="fill:#CFD8DC;" d="M416,106.667H96c-5.891,0-10.667,4.776-10.667,10.667v320C85.333,478.571,118.763,512,160,512h192
	c41.237,0,74.667-33.429,74.667-74.667v-320C426.667,111.443,421.891,106.667,416,106.667z"/>
<g>
	<path style="fill:#607D8B;" d="M160,448c-5.891,0-10.667-4.776-10.667-10.667v-256c0-5.891,4.776-10.667,10.667-10.667
		c5.891,0,10.667,4.776,10.667,10.667v256C170.667,443.225,165.891,448,160,448z"/>
	<path style="fill:#607D8B;" d="M224,170.667c-5.891,0-10.667,4.776-10.667,10.667v256c0,5.891,4.776,10.667,10.667,10.667
		s10.667-4.776,10.667-10.667v-256C234.667,175.443,229.891,170.667,224,170.667z"/>
	<path style="fill:#607D8B;" d="M288,448c-5.891,0-10.667-4.776-10.667-10.667v-256c0-5.891,4.776-10.667,10.667-10.667
		c5.891,0,10.667,4.776,10.667,10.667v256C298.667,443.225,293.891,448,288,448z"/>
	<path style="fill:#607D8B;" d="M352,448c-5.891,0-10.667-4.776-10.667-10.667v-256c0-5.891,4.776-10.667,10.667-10.667
		c5.891,0,10.667,4.776,10.667,10.667v256C362.667,443.225,357.891,448,352,448z"/>
</g>
<path style="fill:#455A64;" d="M394.667,42.667h-57.408l-6.592-13.184C321.687,11.365,303.186-0.069,282.965,0h-53.931
	c-20.221-0.07-38.722,11.365-47.701,29.483l-6.592,13.184h-57.408C87.878,42.667,64,66.545,64,96v21.333
	C64,123.225,68.776,128,74.667,128h362.667c5.891,0,10.667-4.776,10.667-10.667V96C448,66.545,424.122,42.667,394.667,42.667z"/>
<g>
</g>
<g>
</g>
<g>
</g>
<g>
</g>
<g>
</g>
<g>
</g>
<g>
</g>
<g>
</g>
<g>
</g>
<g>
</g>
<g>
</g>
<g>
</g>
<g>
</g>
<g>
</g>
<g>
</g>
</svg>
